<?xml version="1.0" encoding="UTF-8"?>
<svg id="Layer_1" style="enable-background:new 0 0 894.27 437.57" inkscape:version="1.0beta2 (2b71d25, 2019-12-03)" sodipodi:docname="dm-logo.svg" version="1.1" viewBox="0 0 894.3 437.6" xml:space="preserve" xmlns="http://www.w3.org/2000/svg" xmlns:inkscape="http://www.inkscape.org/namespaces/inkscape" xmlns:sodipodi="http://sodipodi.sourceforge.net/DTD/sodipodi-0.dtd"><sodipodi:namedview id="namedview906" bordercolor="#666666" borderopacity="1" gridtolerance="10" guidetolerance="10" inkscape:current-layer="Layer_1" inkscape:cx="364.66254" inkscape:cy="160.14298" inkscape:document-rotation="0" inkscape:pageopacity="0" inkscape:pageshadow="2" inkscape:window-height="914" inkscape:window-maximized="0" inkscape:window-width="1762" inkscape:window-x="0" inkscape:window-y="23" inkscape:zoom="0.79195518" objecttolerance="10" pagecolor="#ffffff" showgrid="false"/>
<style id="style897" type="text/css">
	.st0{fill:#FFFFFF;}
</style>
<path id="path899" class="st0" d="m269.4 375c-23.5 34.47-58.55 51.7-105.2 51.7-42.3 0-76.76-14.69-103.4-44.06-25.85-28.98-38.77-64.81-38.77-107.5 0-42.68 12.92-78.51 38.77-107.5 26.63-29.37 62.07-44.06 106.3-44.06 44.25 0 78.32 17.43 102.2 52.28v-165.1h44.06v411.2h-44.06v-46.99h-0.01zm-99.28 11.75c31.72 0 56.78-10.96 75.19-32.9 17.62-20.75 26.44-47 26.44-78.72s-8.81-57.95-26.44-78.72c-18.41-21.93-43.47-32.9-75.19-32.9-31.34 0-56.79 10.97-76.37 32.9-18.41 20.76-27.61 47-27.61 78.72s9.2 57.96 27.61 78.72c19.58 21.94 45.04 32.9 76.37 32.9z"/>
<path id="path901" class="st0" d="m393 173c19.58-32.9 49.35-49.35 89.29-49.35 19.58 0 37.69 5.2 54.34 15.57 16.64 10.38 29.67 24.97 39.07 43.76 13.31-24.67 34.07-42.3 62.27-52.87 11.35-4.3 24.18-6.46 38.48-6.46 14.29 0 28 2.85 41.12 8.52 13.12 5.68 24.76 13.8 34.95 24.38 21.93 23.5 32.9 52.87 32.9 88.12v177.4h-44.06v-176.2c0-24.28-6.86-44.25-20.56-59.92-13.71-14.88-31.14-22.32-52.28-22.32-22.32 0-40.93 7.25-55.81 21.74-15.67 14.89-23.5 35.25-23.5 61.09v175.6h-44.06v-176.2c0-24.28-6.86-44.25-20.56-59.92-13.71-14.88-31.13-22.32-52.28-22.32-22.32 0-40.93 7.25-55.81 21.74-15.67 14.89-23.5 35.25-23.5 61.09v175.6h-44.06v-293.7h44.06v44.65z"/>
<path id="path903" d="m835.9 426.3c-20 0-36.28-16.28-36.28-36.28s16.28-36.28 36.28-36.28 36.28 16.28 36.28 36.28-16.28 36.28-36.28 36.28zm0-51.46c-8.37 0-15.17 6.81-15.17 15.17s6.81 15.17 15.17 15.17 15.17-6.81 15.17-15.17-6.81-15.17-15.17-15.17z" style="fill:#0091ea"/>
</svg>
